<svg width="163" height="49" viewBox="0 0 163 49" fill="none" xmlns="http://www.w3.org/2000/svg">
<path d="M12.198 48.9955C7.89035 48.8526 4.21027 45.856 3.20983 41.6765C-2.80136 16.5235 0.877017 8.39128 4.16278 4.45816C6.56469 1.49209 10.2383 -0.158504 14.0582 0.0120292C18.0982 0.221345 21.5692 2.94224 22.7262 6.8069C23.8831 10.6716 22.4758 14.8439 19.2117 17.2265C18.9792 19.7118 19.0211 25.5868 21.8152 37.2569C22.4994 40.1476 21.7957 43.191 19.9111 45.4913C18.0266 47.7915 15.1758 49.0867 12.198 48.9955Z" fill="url(#paint0_linear)"/>
<path d="M50.0872 46.1112C49.8242 46.1112 49.565 46.0884 49.302 46.0694C44.2612 45.6784 40.3966 41.4435 40.4814 36.4037C40.5662 31.364 44.5711 27.2607 49.6222 27.0384C50.3845 25.678 51.955 21.5853 52.3247 10.8765C52.4338 7.46603 54.3628 4.37365 57.3828 2.76782C60.4028 1.16198 64.0534 1.28753 66.9553 3.09702C69.8571 4.90652 71.5677 8.12406 71.4408 11.534C70.8996 27.1372 68.0102 36.4703 62.0143 41.8057C58.7631 44.7518 54.4767 46.2991 50.0872 46.1112Z" fill="url(#paint1_linear)"/>
<path d="M48.0288 46.0389L47.621 46.0161C35.2784 45.0737 24.857 33.7873 16.4825 24.7355C14.508 22.596 11.9083 19.7611 10.5399 18.6211C5.97283 17.1691 3.1895 12.5708 4.02988 7.86579C4.87026 3.16082 9.0747 -0.197066 13.8638 0.0119261H14.0467C19.9741 0.342536 24.1823 4.90267 30.5518 11.7923C33.9062 15.4214 37.7027 19.5369 41.4688 22.6568C45.9705 26.3885 48.2919 26.9319 49.0923 26.9927C54.3679 27.2855 58.4066 31.7865 58.1129 37.0459C57.8193 42.3054 53.3045 46.3317 48.0288 46.0389Z" fill="url(#paint2_linear)"/>
<path d="M86.8557 19.7499V21.9616C88.0031 20.1844 89.977 19.1096 92.0969 19.1077C95.7944 19.1077 98.3025 21.9616 98.3025 25.9061V36.1664H93.4806V26.7383C93.4806 24.7508 92.3371 23.341 90.4312 23.341C89.4936 23.3485 88.5991 23.7348 87.9525 24.4117C87.3058 25.0886 86.9623 25.9981 87.0006 26.9321V36.1626H82.1596V19.7499H86.8557Z" fill="#110C23"/>
<path fill-rule="evenodd" clip-rule="evenodd" d="M108.979 36.8048C114.4 36.8048 118.128 33.1833 118.128 27.9581C118.128 22.6988 114.396 19.1077 108.979 19.1077C103.563 19.1077 99.8311 22.733 99.8311 27.9581C99.8311 33.1833 103.559 36.8048 108.979 36.8048ZM108.964 23.341C111.503 23.341 113.271 25.2638 113.271 27.9581C113.271 30.6486 111.472 32.5753 108.964 32.5753C106.456 32.5753 104.687 30.6524 104.687 27.9581C104.687 25.2638 106.425 23.341 108.964 23.341Z" fill="#110C23"/>
<path fill-rule="evenodd" clip-rule="evenodd" d="M138.04 19.7499H133.219V22.0224C131.962 20.1762 129.861 19.0805 127.623 19.1039C122.991 19.1039 119.744 22.7634 119.744 27.9543C119.744 33.1453 122.991 36.801 127.623 36.801C129.861 36.8244 131.962 35.7287 133.219 33.8825V36.1626H138.04V19.7499ZM128.877 23.341C131.385 23.341 133.184 25.2981 133.184 27.9581C133.184 30.6182 131.385 32.5753 128.877 32.5753C126.369 32.5753 124.566 30.622 124.566 27.9581C124.566 25.2943 126.369 23.341 128.877 23.341Z" fill="#110C23"/>
<path d="M144.505 12.3777V21.6082C145.677 20.0033 147.561 19.0699 149.552 19.1077C153.364 19.1077 155.822 21.8666 155.822 25.7465V36.1626H151V26.7383C151 24.7509 149.857 23.3714 147.913 23.341C146.049 23.341 144.505 24.8611 144.505 26.9321V36.1626H139.679V12.3777H144.505Z" fill="#110C23"/>
<path d="M157.404 33.951C157.395 33.2172 157.69 32.5123 158.22 32.0028C158.75 31.4934 159.467 31.2248 160.202 31.2605C161.841 31.2605 163 32.4005 163 33.951C163 35.4914 161.747 36.7402 160.202 36.7402C158.657 36.7402 157.404 35.4914 157.404 33.951Z" fill="#110C23"/>
<defs>
<linearGradient id="paint0_linear" x1="24.3483" y1="42.3045" x2="7.37164" y2="21.6971" gradientUnits="userSpaceOnUse">
<stop stop-color="#7134FF"/>
<stop offset="1" stop-color="#FF3176"/>
</linearGradient>
<linearGradient id="paint1_linear" x1="64.1559" y1="38.2272" x2="80.956" y2="18.7955" gradientUnits="userSpaceOnUse">
<stop stop-color="#FF9947"/>
<stop offset="0.2" stop-color="#FF9F42"/>
<stop offset="0.47" stop-color="#FFAF35"/>
<stop offset="0.77" stop-color="#FFCA1F"/>
<stop offset="1" stop-color="#FFE409"/>
</linearGradient>
<linearGradient id="paint2_linear" x1="1.21076" y1="27.9307" x2="31.0065" y2="56.8037" gradientUnits="userSpaceOnUse">
<stop stop-color="#FF3176"/>
<stop offset="0.17" stop-color="#FF3674"/>
<stop offset="0.38" stop-color="#FF446D"/>
<stop offset="0.6" stop-color="#FF5C62"/>
<stop offset="0.84" stop-color="#FF7D53"/>
<stop offset="1" stop-color="#FF9947"/>
</linearGradient>
</defs>
</svg>
